<svg version="1.1" viewBox="0.0 0.0 960.0 720.0" fill="none" stroke="none" stroke-linecap="square" stroke-miterlimit="10" xmlns:xlink="http://www.w3.org/1999/xlink" xmlns="http://www.w3.org/2000/svg"><clipPath id="p.0"><path d="m0 0l960.0 0l0 720.0l-960.0 0l0 -720.0z" clip-rule="nonzero"/></clipPath><g clip-path="url(#p.0)"><path fill="#000000" fill-opacity="0.0" d="m0 0l960.0 0l0 720.0l-960.0 0z" fill-rule="evenodd"/><path fill="#d9d9d9" d="m454.68478 348.43832l-10.933868 0l0 0c-15.097931 0 -29.577454 -5.9976196 -40.253296 -16.673462c-10.675842 -10.675842 -16.673462 -25.155396 -16.673462 -40.253296l0 -206.66379c0 -5.722046E-4 4.5776367E-4 -0.001045227 0.0010375977 -0.001045227l124.78635 0.001045227l0 0c5.79834E-4 0 0.0010375977 4.6539307E-4 0.0010375977 0.0010375977l-0.0010375977 206.66275l0 0c0 31.439758 -25.486969 56.926758 -56.926758 56.926758z" fill-rule="evenodd"/><path stroke="#000000" stroke-width="4.0" stroke-linejoin="round" stroke-linecap="butt" d="m454.68478 348.43832l-10.933868 0l0 0c-15.097931 0 -29.577454 -5.9976196 -40.253296 -16.673462c-10.675842 -10.675842 -16.673462 -25.155396 -16.673462 -40.253296l0 -206.66379c0 -5.722046E-4 4.5776367E-4 -0.001045227 0.0010375977 -0.001045227l124.78635 0.001045227l0 0c5.79834E-4 0 0.0010375977 4.6539307E-4 0.0010375977 0.0010375977l-0.0010375977 206.66275l0 0c0 31.439758 -25.486969 56.926758 -56.926758 56.926758z" fill-rule="evenodd"/><path fill="#efefef" d="m398.90552 312.02405l0 -79.2104c0 8.749344 22.525604 15.842087 50.312317 15.842087c27.786743 0 50.312347 -7.092743 50.312347 -15.842087l0 79.2104l0 0c0 8.749359 -22.525604 15.842102 -50.312347 15.842102c-27.786713 0 -50.312317 -7.092743 -50.312317 -15.842102z" fill-rule="evenodd"/><path stroke="#000000" stroke-width="4.0" stroke-linejoin="round" stroke-linecap="butt" d="m398.90552 312.02405l0 -79.2104c0 8.749344 22.525604 15.842087 50.312317 15.842087c27.786743 0 50.312347 -7.092743 50.312347 -15.842087l0 79.2104l0 0c0 8.749359 -22.525604 15.842102 -50.312347 15.842102c-27.786713 0 -50.312317 -7.092743 -50.312317 -15.842102z" fill-rule="evenodd"/><path fill="#000000" fill-opacity="0.0" d="m485.15222 202.23566l0 0c-10.065674 10.065704 -23.652985 15.785263 -37.772858 15.900436c-14.119873 0.1151886 -27.615662 -5.3834534 -37.518463 -15.286255l37.95276 -37.95276z" fill-rule="evenodd"/><path fill="#000000" fill-opacity="0.0" d="m485.15222 202.23566l0 0c-10.065674 10.065704 -23.652985 15.785263 -37.772858 15.900436c-14.119873 0.1151886 -27.615662 -5.3834534 -37.518463 -15.286255" fill-rule="evenodd"/><path stroke="#000000" stroke-width="3.0" stroke-linejoin="round" stroke-linecap="butt" d="m485.15222 202.23566l0 0c-10.065674 10.065704 -23.652985 15.785263 -37.772858 15.900436c-14.119873 0.1151886 -27.615662 -5.3834534 -37.518463 -15.286255" fill-rule="evenodd"/><path fill="#000000" fill-opacity="0.0" d="m485.15222 188.23566l0 0c-10.065674 10.065704 -23.652985 15.785263 -37.772858 15.900436c-14.119873 0.1151886 -27.615662 -5.3834534 -37.518463 -15.286255l37.95276 -37.95276z" fill-rule="evenodd"/><path fill="#000000" fill-opacity="0.0" d="m485.15222 188.23566l0 0c-10.065674 10.065704 -23.652985 15.785263 -37.772858 15.900436c-14.119873 0.1151886 -27.615662 -5.3834534 -37.518463 -15.286255" fill-rule="evenodd"/><path stroke="#000000" stroke-width="3.0" stroke-linejoin="round" stroke-linecap="butt" d="m485.15222 188.23566l0 0c-10.065674 10.065704 -23.652985 15.785263 -37.772858 15.900436c-14.119873 0.1151886 -27.615662 -5.3834534 -37.518463 -15.286255" fill-rule="evenodd"/><path fill="#000000" fill-opacity="0.0" d="m476.95013 154.14816l0 0c-7.2673645 7.2673492 -17.158844 11.315262 -27.498444 11.253235c-10.3396 -0.06201172 -20.280365 -4.228882 -27.635437 -11.583939l27.40158 -27.40158z" fill-rule="evenodd"/><path fill="#000000" fill-opacity="0.0" d="m476.95013 154.14816l0 0c-7.2673645 7.2673492 -17.158844 11.315262 -27.498444 11.253235c-10.3396 -0.06201172 -20.280365 -4.228882 -27.635437 -11.583939" fill-rule="evenodd"/><path stroke="#000000" stroke-width="3.0" stroke-linejoin="round" stroke-linecap="butt" d="m476.95013 154.14816l0 0c-7.2673645 7.2673492 -17.158844 11.315262 -27.498444 11.253235c-10.3396 -0.06201172 -20.280365 -4.228882 -27.635437 -11.583939" fill-rule="evenodd"/><path fill="#d9d9d9" d="m416.8692 64.37533l64.39282 0l0 0c7.4575195 0 14.609558 2.9624786 19.882812 8.235733c5.2732544 5.273247 8.235748 12.425308 8.235748 19.882812l0 33.51925c0 5.569458E-4 -4.5776367E-4 0.0010070801 -0.0010070801 0.0010070801l-120.62891 -0.0010070801l0 0c-5.79834E-4 0 -0.0010070801 -4.5013428E-4 -0.0010070801 -0.0010070801l0.0010070801 -33.51824l0 0c0 -15.529442 12.589081 -28.118546 28.11853 -28.118546z" fill-rule="evenodd"/></g></svg>