<svg version="1.1" viewBox="0.0 0.0 960.0 720.0" fill="none" stroke="none" stroke-linecap="square" stroke-miterlimit="10" xmlns:xlink="http://www.w3.org/1999/xlink" xmlns="http://www.w3.org/2000/svg"><clipPath id="p.0"><path d="m0 0l960.0 0l0 720.0l-960.0 0l0 -720.0z" clip-rule="nonzero"/></clipPath><g clip-path="url(#p.0)"><path fill="#000000" fill-opacity="0.0" d="m0 0l960.0 0l0 720.0l-960.0 0z" fill-rule="evenodd"/><path fill="#434343" d="m280.7638 116.95145l0 0c0 -36.28627 29.415833 -65.7021 65.70209 -65.7021l262.80054 0l0 0c17.425293 0 34.13684 6.922165 46.458374 19.243698c12.321533 12.321533 19.243713 29.03312 19.243713 46.458405l0 529.8556c0 36.286316 -29.415833 65.70215 -65.70209 65.70215l-262.80054 0c-36.286255 0 -65.70209 -29.415833 -65.70209 -65.70215z" fill-rule="evenodd"/><path stroke="#000000" stroke-width="4.496062992125984" stroke-linejoin="round" stroke-linecap="butt" d="m280.7638 116.95145l0 0c0 -36.28627 29.415833 -65.7021 65.70209 -65.7021l262.80054 0l0 0c17.425293 0 34.13684 6.922165 46.458374 19.243698c12.321533 12.321533 19.243713 29.03312 19.243713 46.458405l0 529.8556c0 36.286316 -29.415833 65.70215 -65.70209 65.70215l-262.80054 0c-36.286255 0 -65.70209 -29.415833 -65.70209 -65.70215z" fill-rule="evenodd"/><path fill="#6d9eeb" d="m289.03937 130.38446l0 0c0 -34.7294 28.153748 -62.88315 62.88315 -62.88315l251.52505 0l0 0c16.677612 0 32.67224 6.625168 44.465088 18.418045c11.792908 11.792877 18.41803 27.787453 18.41803 44.465103l0 504.24945c0 34.72943 -28.153748 62.88318 -62.883118 62.88318l-251.52505 0c-34.7294 0 -62.88315 -28.153748 -62.88315 -62.88318z" fill-rule="evenodd"/><path stroke="#000000" stroke-width="4.496062992125984" stroke-linejoin="round" stroke-linecap="butt" d="m289.03937 130.38446l0 0c0 -34.7294 28.153748 -62.88315 62.88315 -62.88315l251.52505 0l0 0c16.677612 0 32.67224 6.625168 44.465088 18.418045c11.792908 11.792877 18.41803 27.787453 18.41803 44.465103l0 504.24945c0 34.72943 -28.153748 62.88318 -62.883118 62.88318l-251.52505 0c-34.7294 0 -62.88315 -28.153748 -62.88315 -62.88318z" fill-rule="evenodd"/><path fill="#efefef" d="m410.0 471.2546l0 0c0 -23.474304 40.85843 -42.503937 91.25986 -42.503937l0 0c50.401398 0 91.25986 19.029633 91.25986 42.503937l0 0c0 23.474274 -40.85846 42.503937 -91.25986 42.503937l0 0c-50.40143 0 -91.25986 -19.029663 -91.25986 -42.503937z" fill-rule="evenodd"/><path fill="#efefef" d="m418.7533 413.03937l0 0c0 -29.614624 19.812256 -53.62204 44.251953 -53.62204l0 0c11.736359 0 22.992004 5.6494446 31.290863 15.705536c8.298859 10.056091 12.961121 23.695068 12.961121 37.916504l0 0c0 29.614655 -19.812286 53.62204 -44.251984 53.62204l0 0c-24.439697 0 -44.251953 -24.007385 -44.251953 -53.62204z" fill-rule="evenodd"/><path fill="#efefef" d="m306.50394 489.15747l0 0c0 -18.63852 36.599854 -33.748016 81.74805 -33.748016l0 0c45.148163 0 81.74802 15.109497 81.74802 33.748016l0 0c0 18.63852 -36.599854 33.748047 -81.74802 33.748047l0 0c-45.148193 0 -81.74805 -15.109528 -81.74805 -33.748047z" fill-rule="evenodd"/><path fill="#efefef" d="m344.0 449.03937l0 0c0 -29.614624 19.812286 -53.62204 44.251984 -53.62204l0 0c11.736328 0 22.992004 5.6494446 31.290863 15.705536c8.298828 10.056091 12.96109 23.695068 12.96109 37.916504l0 0c0 29.614655 -19.812286 53.62204 -44.251953 53.62204l0 0c-24.439697 0 -44.251984 -24.007385 -44.251984 -53.62204z" fill-rule="evenodd"/><path fill="#efefef" d="m499.75592 418.54068l0 0c0 -21.030304 11.4713745 -38.078735 25.62201 -38.078735l0 0c6.79541 0 13.3125 4.011841 18.117554 11.153015c4.8050537 7.141144 7.5045166 16.8266 7.5045166 26.92572l0 0c0 21.030304 -11.4713745 38.078735 -25.62207 38.078735l0 0c-14.150635 0 -25.62201 -17.048431 -25.62201 -38.078735z" fill-rule="evenodd"/><path fill="#cfe2f3" fill-opacity="0.3708" d="m300.8866 492.48633l-8.142181 -175.0487l366.3784 -109.92767l8.142151 175.04868z" fill-rule="evenodd"/><path fill="#cfe2f3" fill-opacity="0.3708" d="m285.9265 634.18365l-3.1502075 -67.85242l391.30768 -117.40741l3.1502075 67.85242z" fill-rule="evenodd"/><path fill="#efefef" d="m528.9131 223.76808l0 0c0 -17.673111 30.761902 -32.0 68.70868 -32.0l0 0c37.946716 0 68.70868 14.326889 68.70868 32.0l0 0c0 17.673111 -30.761963 32.0 -68.70868 32.0l0 0c-37.946777 0 -68.70868 -14.326889 -68.70868 -32.0z" fill-rule="evenodd"/><path fill="#efefef" d="m422.24146 220.4305l0 0c0 -15.829254 34.202637 -28.661423 76.39371 -28.661423l0 0c42.19107 0 76.39371 12.832169 76.39371 28.661423l0 0c0 15.829269 -34.202637 28.661423 -76.39371 28.661423l0 0c-42.19107 0 -76.39371 -12.832153 -76.39371 -28.661423z" fill-rule="evenodd"/><path fill="#efefef" d="m439.3245 189.16011l0 0c0 -18.638535 16.082489 -33.74803 35.921265 -33.74803l0 0c9.5269165 0 18.663635 3.5555878 25.400177 9.884567c6.7365417 6.3289795 10.521088 14.912918 10.521088 23.863464l0 0c0 18.63852 -16.082489 33.74803 -35.921265 33.74803l0 0c-19.838776 0 -35.921265 -15.109512 -35.921265 -33.74803z" fill-rule="evenodd"/><path fill="#efefef" d="m477.17773 200.78233l0 0c-3.522461 -18.308014 20.682373 -38.352966 54.06299 -44.771652l0 0c33.380615 -6.4186707 63.296448 3.2195435 66.81891 21.527557l0 0c3.522461 18.30803 -20.682373 38.35298 -54.06299 44.771652l0 0c-33.380615 6.418686 -63.29648 -3.2195282 -66.81891 -21.527557z" fill-rule="evenodd"/><path fill="#efefef" d="m550.559 655.96326l0 0c0 -15.829285 23.175415 -28.661438 51.763794 -28.661438l0 0c28.588318 0 51.763733 12.832153 51.763733 28.661438l0 0c0 15.829224 -23.175415 28.661377 -51.763733 28.661377l0 0c-28.588379 0 -51.763794 -12.832153 -51.763794 -28.661377z" fill-rule="evenodd"/><path fill="#efefef" d="m516.67194 654.15247l0 0c0 -10.697815 21.92743 -19.370117 48.97638 -19.370117l0 0c27.04889 0 48.97638 8.672302 48.97638 19.370117l0 0c0 10.697754 -21.92749 19.370056 -48.97638 19.370056l0 0c-27.04895 0 -48.97638 -8.672302 -48.97638 -19.370056z" fill-rule="evenodd"/><path fill="#efefef" d="m543.8003 632.9101l0 0c0 -12.593811 12.796936 -22.803162 28.582703 -22.803162l0 0c15.785767 0 28.582642 10.209351 28.582642 22.803162l0 0c0 12.593811 -12.796875 22.803162 -28.582642 22.803162l0 0c-15.785767 0 -28.582703 -10.209351 -28.582703 -22.803162z" fill-rule="evenodd"/><path fill="#efefef" d="m606.8759 632.9101l0 0c0 -12.593811 12.796936 -22.803162 28.582703 -22.803162l0 0c15.785767 0 28.582642 10.209351 28.582642 22.803162l0 0c0 12.593811 -12.796875 22.803162 -28.582642 22.803162l0 0c-15.785767 0 -28.582703 -10.209351 -28.582703 -22.803162z" fill-rule="evenodd"/><path fill="#efefef" d="m568.0465 611.37994l0 0c0 -12.593872 12.796936 -22.803162 28.582703 -22.803162l0 0c15.785767 0 28.582703 10.20929 28.582703 22.803162l0 0c0 12.593811 -12.796936 22.8031 -28.582703 22.8031l0 0c-15.785767 0 -28.582703 -10.20929 -28.582703 -22.8031z" fill-rule="evenodd"/><path fill="#efefef" d="m317.0165 186.53282l0 0c20.021423 -5.583725 41.300232 8.009903 47.527557 30.362213l0 0c6.227356 22.35231 -4.954956 44.998947 -24.97638 50.582687l0 0c-20.021393 5.5837097 -41.3002 -8.009918 -47.527557 -30.362213l0 0c-6.2273254 -22.35231 4.9549866 -44.998947 24.97638 -50.582687z" fill-rule="evenodd"/><path fill="#efefef" d="m289.03937 258.2756l0 0c0 -15.829285 21.278809 -28.661438 47.527557 -28.661438l0 0c26.248749 0 47.527557 12.832153 47.527557 28.661438l0 0c0 15.829254 -21.278809 28.661407 -47.527557 28.661407l0 0c-26.248749 0 -47.527557 -12.832153 -47.527557 -28.661407z" fill-rule="evenodd"/></g></svg>